<?xml version="1.0" encoding="utf-8"?>
<!-- Generator: Adobe Illustrator 16.0.0, SVG Export Plug-In . SVG Version: 6.00 Build 0)  -->
<!DOCTYPE svg PUBLIC "-//W3C//DTD SVG 1.1//EN" "http://www.w3.org/Graphics/SVG/1.1/DTD/svg11.dtd">
<svg version="1.1" id="Layer_1" xmlns="http://www.w3.org/2000/svg" xmlns:xlink="http://www.w3.org/1999/xlink" x="0px" y="0px"
	 width="69.358px" height="123.983px" viewBox="0 0 69.358 123.983" enable-background="new 0 0 69.358 123.983"
	 xml:space="preserve">
<path fill-rule="evenodd" clip-rule="evenodd" d="M21.958,17.54c-0.645-0.557-1.249-1.174-1.941-1.662
	c-4.2-2.96-5.231-5.865-3.787-10.8c1.659-5.667,3.532-6.44,8.446-3.067c1.807,1.241,3.156,3.148,5.06,5.108
	c0.422-0.313,1.327-1.004,2.25-1.669C37.057,1.8,43.36,3.384,45.969,9.003c1.214,2.614,2.312,5.281,3.645,8.343
	c1.441-1.057,2.726-1.919,3.921-2.892c2.084-1.695,4.275-2.12,6.639-0.684c2.474,1.503,5.16,2.794,7.265,4.713
	c1.165,1.062,2.312,3.663,1.792,4.817c-4.522,10.056-2.086,20.739-3.207,31.074c-0.279,2.574-0.175,5.238-0.81,7.717
	c-1.108,4.327-4.072,7.354-8.172,8.985c-3.853,1.532-7.862,2.671-12.111,4.086c2.537,0.778,5.075,1.079,7.042,2.3
	c1.892,1.173,3.139,3.352,4.771,4.987c1.123,1.126,2.3,2.71,3.665,2.97c2.453,0.465,2.825,1.889,2.815,3.798
	c-0.011,2.105-0.42,3.96-2.958,4.534c-4.24,0.959-8.122-0.996-10.015-5.177c-0.369-0.814-0.618-1.723-1.144-2.421
	c-1.855-2.469-4.222-2.188-5.34,0.632c-0.846,2.133-1.63,4.298-2.304,6.492c-1.408,4.588,0.746,7.528,5.536,7.674
	c7.611,0.232,7.77,0.415,6.524,7.993c-0.55,3.352-1.168,6.691-1.715,10.043c-0.479,2.938-2.073,4.878-5.11,4.922
	c-7.477,0.107-14.957,0.103-22.433-0.044c-3.113-0.062-4.814-1.931-5.279-5.082c-0.612-4.149-1.478-8.261-2.141-12.404
	c-0.697-4.357,0.154-5.301,4.635-5.382c1.174-0.021,2.349-0.003,3.391-0.003c0.734-4.996,1.409-9.592,2.112-14.385
	c-2.228,0.614-4.469,1.35-6.763,1.843c-5.385,1.159-9.968-0.962-12.673-5.73c-1.555-2.742-1.084-5.094,1.294-6.473
	c3.105-1.8,5.284-1.525,6.854,1.434c1.432,2.701,3.267,2.902,5.688,1.868c2.019-0.863,4.02-1.767,6.01-2.695
	c0.426-0.198,0.767-0.578,1.727-1.326c-1.537-0.449-2.571-0.753-3.606-1.054c-3.433-0.995-7.084-1.541-10.25-3.083
	c-5.558-2.708-8.429-7.384-8.254-13.786c0.232-8.489,0.329-16.981,0.465-25.474c0.041-2.569-0.156-4.69-3.362-5.756
	c-3.299-1.097-4.953-5.625-3.688-8.847c0.293-0.746,1.725-1.674,2.407-1.521c2.189,0.494,4.249,1.534,6.408,2.197
	c0.87,0.268,2.258,0.524,2.751,0.07c3.168-2.915,6.229-4.059,9.565,0.454C21.691,18.333,21.825,17.937,21.958,17.54z M61.399,60.207
	c0.315-0.002,0.631-0.003,0.947-0.004c0.474-11.781,2.685-23.48,1.23-35.426c0.497-0.093,1.295-0.241,2.228-0.416
	c-0.407-1.185-0.668-2.153-1.075-3.056c-0.25-0.555-0.724-1.009-1.097-1.509c-0.393,0.488-0.993,0.922-1.139,1.474
	c-0.404,1.542-0.565,3.146-0.923,4.703c-0.533,2.322-1.153,4.625-1.736,6.936c-0.283-0.034-0.565-0.068-0.849-0.103
	c-0.108-0.546-0.365-1.111-0.301-1.636c0.478-3.855,0.935-7.717,1.578-11.547c0.277-1.648-0.255-2.743-1.767-2.746
	c-0.763-0.002-1.66,1.074-2.251,1.85c-0.468,0.614-0.562,1.513-0.821,2.285c-0.199-0.018-0.398-0.036-0.598-0.054
	c-0.269-0.839-0.536-1.678-0.804-2.517c-0.312-0.131-0.625-0.262-0.937-0.394c-1.599,2.378-3.197,4.757-4.472,6.653
	c-1.219-3.787-2.473-7.683-3.726-11.58c-0.299,0.081-0.596,0.162-0.895,0.243c-0.326,3.038-0.652,6.077-0.979,9.115
	c-0.855-1.419-1.121-2.856-1.159-4.3c-0.085-3.197,0.005-6.4-0.127-9.596c-0.026-0.63-0.73-1.233-1.122-1.849
	c-0.535,0.493-1.246,0.894-1.565,1.5c-0.564,1.071-0.891,2.267-1.316,3.41c-0.203-0.05-0.406-0.101-0.608-0.151
	c-0.166-1.337-0.332-2.673-0.499-4.01c-0.289,0.007-0.578,0.015-0.866,0.021c-0.562,4.579-1.125,9.157-1.688,13.735
	c-0.359-0.029-0.717-0.058-1.076-0.087c0-3.904,0-7.808,0-12.324c-3.528,2.751-6.057,4.92-5.5,9.258
	c0.305,2.379-0.461,4.896-0.745,7.351c-0.333-0.015-0.666-0.03-0.999-0.045c-0.327-1.669-0.655-3.339-0.997-5.084
	c-0.497,1.039-0.946,1.979-1.522,3.183c-1.679-1.214-3.077-2.226-4.541-3.284c-0.563,3.373-1.086,6.507-1.609,9.641
	c-0.311-0.006-0.622-0.012-0.933-0.018c-0.42-1.64-1.168-3.279-1.167-4.918c0-1.638,0.749-3.276,1.17-4.914
	c-0.257-0.138-0.514-0.276-0.771-0.415c-1.58,1.145-3.159,2.29-4.039,2.928c-0.271,3.208-0.479,5.67-0.679,8.047
	c0.976,0.258,1.688,0.446,2.631,0.695c-3.894,5.116-2.572,10.722-2.823,16.525c4.909-4.499,9.731-4.929,13.001-1.48
	c2.8,2.955,2.811,7.436,0.024,10.294c-3.158,3.238-8.541,2.584-12.88-1.565c-0.819,6.276,0.474,8.74,4.884,9.308
	c1.77,5.226,2.544,5.67,6.29,3.602c1.761,3.907,3.974,4.441,6.221,2.17c1.992,0.544,3.564,1.164,5.188,1.366
	c1.772,0.22,3.606-0.084,5.39,0.086c3.18,0.304,5.767-0.09,6.194-3.991c0.017-0.148,0.438-0.252,0.68-0.383
	c0.552,1.315,1.062,2.534,1.787,4.26c0.925-1.562,1.455-2.458,2.019-3.409c2.167,2.586,2.167,2.586,3.965-1.53
	c2.655,2.493,3.862,2.232,5.197-1.382c0.791-2.143,1.242-4.41,1.872-6.614c0.056-0.197,0.303-0.34,0.642-0.698
	C61.127,58.79,61.264,59.499,61.399,60.207z M51.355,104.372c-11.099,0-21.306,0-31.775,0c0.904,4.972,1.797,9.465,2.511,13.986
	c0.325,2.056,1.663,2.656,3.339,2.68c6.882,0.096,13.767,0.146,20.648,0.04c0.853-0.014,2.277-0.938,2.438-1.66
	C49.603,114.491,50.421,109.507,51.355,104.372z M32.898,79.2c-3.205,10.5-2.617,12.242,4.736,14.835
	c-1.68-3.866-3.259-7.5-4.838-11.134c0.36-0.214,0.72-0.428,1.08-0.641c1.767,2.472,3.533,4.943,5.3,7.416
	c0.303-0.241,0.606-0.482,0.909-0.724C37.827,85.889,35.569,82.824,32.898,79.2z M29.361,91.583
	c-2.629,4.548,2.459,5.056,3.521,7.51c-1.479,0.312-2.684,0.567-3.889,0.823c4.255,1.594,6.16,1.279,8.08-0.889
	c0.758,0.511,1.522,1.026,2.286,1.541c0.202-0.27,0.403-0.54,0.605-0.81C36.471,97.064,32.976,94.37,29.361,91.583z M22,13.494
	c-0.426-2.419-0.782-4.432-1.137-6.444c0.305-0.068,0.61-0.136,0.915-0.204c0.494,0.72,0.946,1.474,1.493,2.151
	c0.56,0.695,1.211,1.317,1.972,2.131c1.49-3.648-0.828-7.854-4.064-8.075c-0.664-0.045-1.61,0.326-2.014,0.833
	C16.888,6.743,18.102,11.355,22,13.494z M15.787,82.889c-1.445-1.894-1.263-5.052-4.601-4.297c-0.651,0.147-1.584,1.583-1.449,2.229
	C10.293,83.474,12.146,84.104,15.787,82.889z M20.4,49.177c-1.866-1.184-2.994-2.448-4.068-2.404
	c-0.826,0.034-2.401,2.001-2.191,2.604c0.374,1.076,1.744,2.187,2.894,2.463C17.697,52,18.746,50.55,20.4,49.177z M39.715,84.083
	c0.48-0.033,0.962-0.066,1.442-0.101c0-2.503,0.084-5.012-0.063-7.507c-0.033-0.565-0.868-1.084-1.334-1.623
	c-0.492,0.615-1.459,1.286-1.395,1.836C38.655,79.173,39.237,81.622,39.715,84.083z M53.095,87.703
	c0.416,0.013,0.832,0.026,1.248,0.039c0-1.28,0.436-2.82-0.126-3.768c-0.527-0.887-2.109-1.148-3.228-1.685
	c-0.126,0.272-0.252,0.546-0.378,0.818C51.439,84.64,52.268,86.172,53.095,87.703z M58.269,91.826
	c0.851-1.008,1.71-1.681,2.014-2.548c0.127-0.363-1.26-1.711-1.386-1.638c-1.188,0.697-2.251,1.605-3.352,2.454
	C56.279,90.561,57.014,91.027,58.269,91.826z M4.726,24.543c0.4-0.179,0.801-0.356,1.202-0.535c-0.683-1.327-1.365-2.654-2.047-3.98
	c0.168-0.203,0.337-0.407,0.505-0.609c1.088,0.389,2.176,0.777,3.264,1.166c0.057-0.237,0.114-0.475,0.172-0.712
	c-1.53-0.492-3.06-0.983-4.59-1.475c-0.3,0.295-0.599,0.591-0.899,0.887C3.13,21.036,3.928,22.79,4.726,24.543z M35.89,79.82
	c1.019-4.602,0.491-5.118-3.365-4.306C33.557,76.835,34.578,78.141,35.89,79.82z M20.518,85.7c1.766-0.61,3.299-1.14,5.257-1.815
	C21.693,81.968,20.767,82.255,20.518,85.7z"/>
<path fill-rule="evenodd" clip-rule="evenodd" d="M35.785,57.603c1.891,0,3.783-0.006,5.673,0.001
	c2.054,0.008,2.812,1.131,2.689,3.076c-0.188,2.952-2.786,6.449-5.711,6.938c-2.323,0.388-4.961,0.732-7.074-0.007
	c-1.907-0.667-3.888-2.543-4.777-4.395c-1.641-3.419-0.287-5.21,3.529-5.493c1.88-0.139,3.779-0.024,5.67-0.024
	C35.784,57.668,35.784,57.635,35.785,57.603z"/>
<path fill-rule="evenodd" clip-rule="evenodd" d="M52.936,58.692c-4.332,0.015-7.3-3.021-7.411-7.582
	c-0.103-4.165,3.312-7.408,7.738-7.351c4.183,0.054,7.186,3.238,7.148,7.58C60.371,56.077,57.729,58.676,52.936,58.692z
	 M54.88,49.146c-1.464-1.085-2.565-2.443-3.194-2.251c-1.138,0.348-1.992,1.62-2.965,2.506c1.044,0.864,1.983,2.087,3.178,2.432
	C52.453,51.993,53.5,50.444,54.88,49.146z"/>
</svg>
